<?xml version="1.0" encoding="UTF-8" standalone="no"?>
<!-- Created with Inkscape (http://www.inkscape.org/) -->

<svg
   version="1.1"
   id="svg9"
   width="204.8"
   height="204.8"
   viewBox="0 0 204.8 204.8"
   sodipodi:docname="fav.svg"
   inkscape:version="1.1.1 (3bf5ae0d25, 2021-09-20)"
   xmlns:inkscape="http://www.inkscape.org/namespaces/inkscape"
   xmlns:sodipodi="http://sodipodi.sourceforge.net/DTD/sodipodi-0.dtd"
   xmlns="http://www.w3.org/2000/svg"
   xmlns:svg="http://www.w3.org/2000/svg">
  <defs
     id="defs13" />
  <sodipodi:namedview
     id="namedview11"
     pagecolor="#ffffff"
     bordercolor="#666666"
     borderopacity="1.0"
     inkscape:pageshadow="2"
     inkscape:pageopacity="0.0"
     inkscape:pagecheckerboard="0"
     showgrid="false"
     inkscape:zoom="1.2133789"
     inkscape:cx="99.721531"
     inkscape:cy="141.34085"
     inkscape:window-width="1366"
     inkscape:window-height="705"
     inkscape:window-x="-8"
     inkscape:window-y="-8"
     inkscape:window-maximized="1"
     inkscape:current-layer="g15" />
  <g
     inkscape:groupmode="layer"
     inkscape:label="Image"
     id="g15">
    <path
       style="fill:#1c1c1c;stroke:none;stroke-width:0.32"
       d="M 64.039052,37.996528 V 140.39653 h 39.679998 11.52 l 5.44,-0.19296 5.44,-4.92704 11.84,-11.84 5.24704,-5.76 0.19296,-7.36 V 93.676527 37.996528 H 64.039052 m 75.839998,77.120002 h -15.68 l -5.56704,0.51296 -0.51296,5.56704 v 15.68 H 67.559052 V 41.516528 h 53.119998 13.76 l 4.92704,0.32896 0.51296,4.79104 v 13.44 55.040002 M 76.519052,46.151088 c -1.43008,0.31264 -2.53696,1.24768 -2.80704,2.72544 -0.82272,4.50592 -0.073,9.81696 -0.073,14.4 0,1.663363 -0.38208,3.947843 0.59456,5.405123 1.1312,1.68832 3.40704,1.31488 5.16544,1.31488 4.83232,0 11.34848,1.15552 15.9984,-0.13888 2.03072,-0.56512 2.23264,-2.5536 2.24128,-4.34112 0.0208,-4.266563 3.2e-4,-8.533443 3.2e-4,-12.800003 0,-1.70752 0.39936,-3.98816 -0.77888,-5.39744 -1.31904,-1.57792 -3.4576,-1.32256 -5.30112,-1.32256 -4.73504,0 -10.41248,-0.8576 -15.04,0.15456 m 18.56,2.40544 v 13.44 l -0.32416,5.194563 -4.79584,0.56544 -13.76,-0.32 V 48.556528 h 18.88 m -10.8752,2.15744 c -3.84,1.51296 -1.2288,7.68224 2.5504,6.1584 4.13312,-1.66688 1.65152,-7.81376 -2.5504,-6.1584 m 0.6352,6.80256 c -4.6304,1.60896 -5.12,3.68224 -5.12,8.320003 l 11.84,-0.32 c -0.35648,-4.437123 -0.68768,-6.756803 -5.44,-8.000003 l -0.32,0.32 c 0.53024,2.04928 0.99296,3.80256 0,5.76 h -0.32 l -0.64,-6.08 m 18.879998,4.8 v 3.520003 c 9.24064,0 19.71648,-1.3664 28.8,0.32 v -3.840003 h -28.8 M 74.919012,75.436531 v 3.84 h 57.599998 v -3.84 H 74.919012 m 0,13.44 v 3.519996 H 132.51901 V 88.876531 H 74.919012 m 0,13.119999 v 3.52 h 57.599998 v -3.52 H 74.919012 m 62.079998,16.96 c -3.62784,5.1504 -9.8896,11.41216 -15.04,15.04 v -15.04 z"
       id="path153" />
  </g>
</svg>
